<svg id="github" data-name="github" xmlns="http://www.w3.org/2000/svg" viewBox="0 0 48 48"><defs><style>.cls-1{fill:#424242;fill-rule:evenodd;}</style></defs><title>github</title><path class="cls-1" d="M24,5a19.48,19.48,0,0,0-6.16,38c1,.17,1.34-.41,1.34-.92s0-2,0-3.63c-4.89.9-6.16-1.19-6.55-2.29a7,7,0,0,0-2-2.75c-.68-.37-1.66-1.27,0-1.29s2.63,1.41,3,2a4.16,4.16,0,0,0,5.67,1.61,4.08,4.08,0,0,1,1.24-2.6c-4.33-.49-8.86-2.17-8.86-9.62a7.57,7.57,0,0,1,2-5.24,7,7,0,0,1,.19-5.16s1.63-.51,5.36,2a18.3,18.3,0,0,1,9.74,0c3.72-2.54,5.36-2,5.36-2a7,7,0,0,1,.19,5.16,7.56,7.56,0,0,1,2,5.24c0,7.47-4.56,9.13-8.89,9.62a4.59,4.59,0,0,1,1.31,3.6c0,2.61,0,4.7,0,5.36s.37,1.12,1.34.92A19.49,19.49,0,0,0,24,5Z"/></svg>
