<svg id="レイヤー_1" data-name="レイヤー 1" xmlns="http://www.w3.org/2000/svg" viewBox="0 0 480 720"><defs><style>.cls-1{fill:#efd2ff;}.cls-2{fill:#bfea86;}.cls-3{fill:#f2dd88;}.cls-4,.cls-5{fill:none;stroke:#58637a;stroke-miterlimit:10;stroke-width:8px;}.cls-5{stroke-linecap:round;stroke-dasharray:16.4 12.4;}.cls-6{font-size:14px;}.cls-11,.cls-6,.cls-7,.cls-8,.cls-9{fill:#58637a;}.cls-6,.cls-9{font-family:HelveticaNeue-Bold, Helvetica Neue;}.cls-6,.cls-7,.cls-8,.cls-9{font-weight:700;}.cls-7{font-size:12px;}.cls-7,.cls-8{font-family:Sarasa-Gothic-J-Bold, Sarasa Gothic J;}.cls-8{font-size:30.37px;}.cls-9{font-size:18.54px;}.cls-10{fill:#b4e0fc;}</style></defs><title>about</title><rect class="cls-1" x="296" y="84" width="170" height="80" rx="4"/><rect class="cls-2" x="53" y="53" width="230" height="111" rx="9"/><path class="cls-2" d="M62,172H274a9,9,0,0,1,9,9v80a0,0,0,0,1,0,0H53a0,0,0,0,1,0,0V181A9,9,0,0,1,62,172Z"/><path class="cls-3" d="M55,582H275a9,9,0,0,1,9,9v55a0,0,0,0,1,0,0H46a0,0,0,0,1,0,0V591A9,9,0,0,1,55,582Z"/><rect class="cls-3" x="46" y="656" width="238" height="64" transform="translate(330 1376) rotate(180)"/><path class="cls-4" d="M35,261V37A16,16,0,0,1,51,21H259a16,16,0,0,1,16,16V261"/><path class="cls-4" d="M35,720V588a16,16,0,0,1,16-16H259a16,16,0,0,1,16,16V720"/><line class="cls-5" x1="52" y1="45" x2="124" y2="45"/><line class="cls-5" x1="52" y1="152" x2="124" y2="152"/><text class="cls-6" transform="translate(59 69)">module: Article<tspan x="0" y="17">title: products</tspan><tspan x="0" y="34">items:</tspan><tspan x="0" y="51" xml:space="preserve">        - name: banana</tspan><tspan x="0" y="68" xml:space="preserve">          price: 100</tspan></text><text class="cls-7" transform="translate(58 186.56)">## products of the week!<tspan x="0" y="21">here are some products we </tspan><tspan x="0" y="42">highly reccomend!</tspan></text><text class="cls-8" transform="translate(295.76 78)">Preamble</text><text class="cls-8" transform="translate(295.76 211)">Body</text><text class="cls-6" transform="translate(324.94 113.82)">{ title: String<tspan x="0" y="17">, items: List Fruit</tspan><tspan x="0" y="34">}</tspan><tspan x="0" y="68" xml:space="preserve">  </tspan></text><rect class="cls-1" x="296" y="221" width="170" height="40" rx="4"/><text class="cls-6" transform="translate(358.94 245.82)">String</text><text class="cls-9" transform="translate(57.93 622.58)">HEAD</text><text class="cls-9" transform="translate(57.93 695.58)">BODY</text><text class="cls-9" transform="translate(30.93 561.58)">HTML</text><rect class="cls-10" x="32" y="282" width="434" height="250" rx="10"/><text class="cls-6" transform="translate(41 312)">main : Page Preamble<tspan x="0" y="17">main =</tspan><tspan x="0" y="34" xml:space="preserve">    page</tspan><tspan x="0" y="51" xml:space="preserve">        { decoder = decoder</tspan><tspan x="0" y="68" xml:space="preserve">        , head = head</tspan><tspan x="0" y="85" xml:space="preserve">        , body = body</tspan><tspan x="0" y="102" xml:space="preserve">        }</tspan><tspan x="0" y="136">decoder : Decoder Preamble</tspan><tspan x="0" y="170">head : Preamble -&gt; String -&gt; List (Html Never)</tspan><tspan x="0" y="204">body : Preamble -&gt; String -&gt; List (Html Never)</tspan></text><polygon class="cls-11" points="192.2 274.34 155 301 117.8 274.34 192.2 274.34"/><rect class="cls-11" x="131.99" y="254" width="46.02" height="20.38"/><polygon class="cls-11" points="192.2 541.34 155 568 117.8 541.34 192.2 541.34"/><rect class="cls-11" x="131.99" y="521" width="46.02" height="20.38"/></svg>