<svg id="レイヤー_1" data-name="レイヤー 1" xmlns="http://www.w3.org/2000/svg" viewBox="0 0 720 320"><defs><style>.cls-1{fill:#fff;}.cls-2{fill:#3db7cf;}.cls-3,.cls-4,.cls-5{fill:none;stroke:#58637a;stroke-linejoin:round;stroke-width:16px;}.cls-4,.cls-5{stroke-linecap:round;}.cls-4{stroke-dasharray:25.6;}</style></defs><title>header</title><path class="cls-1" d="M104,320V50a30,30,0,0,1,30-30H586a30,30,0,0,1,30,30V320"/><path class="cls-2" d="M143.5,320V79a24,24,0,0,1,24-24H617V320"/><path class="cls-3" d="M104,320V50a30,30,0,0,1,30-30H586a30,30,0,0,1,30,30V320"/><line class="cls-4" x1="167" y1="80" x2="294" y2="80"/><line class="cls-4" x1="167" y1="198" x2="294" y2="198"/><line class="cls-5" x1="167" y1="253" x2="454" y2="253"/><line class="cls-5" x1="167" y1="286" x2="323" y2="286"/><line class="cls-5" x1="167" y1="119" x2="221" y2="119"/><line class="cls-5" x1="167" y1="152" x2="221" y2="152"/></svg>