<svg id="レイヤー_1" data-name="レイヤー 1" xmlns="http://www.w3.org/2000/svg" viewBox="0 0 720 320"><defs><style>.cls-1{fill:#fff;}.cls-2{fill:#3db7cf;}.cls-3,.cls-4{fill:none;stroke:#58637a;stroke-linecap:round;stroke-linejoin:round;stroke-width:16px;}.cls-4{stroke-dasharray:25.6;}.cls-5{fill:#58637a;}</style></defs><title>header</title><path class="cls-1" d="M104,320V50a30,30,0,0,1,30-30H586a30,30,0,0,1,30,30V320"/><path class="cls-2" d="M143.5,320V79a24,24,0,0,1,24-24H617V320"/><path class="cls-3" d="M104,50a30,30,0,0,1,30-30H586a30,30,0,0,1,30,30V272"/><line class="cls-3" x1="104" y1="116" x2="104" y2="91.13"/><line class="cls-3" x1="104" y1="320" x2="104" y2="156.97"/><line class="cls-4" x1="167" y1="80" x2="294" y2="80"/><line class="cls-4" x1="167" y1="198" x2="294" y2="198"/><line class="cls-3" x1="167" y1="253" x2="454" y2="253"/><line class="cls-3" x1="167" y1="286" x2="323" y2="286"/><line class="cls-3" x1="167" y1="119" x2="221" y2="119"/><line class="cls-3" x1="167" y1="152" x2="221" y2="152"/><path class="cls-5" d="M48,320a48,48,0,0,0,48-48v48Z"/></svg>