<svg id="レイヤー_1" data-name="レイヤー 1" xmlns="http://www.w3.org/2000/svg" viewBox="0 0 960 480"><defs><style>.cls-1{fill:#58637a;}.cls-2{fill:#3db7cf;}.cls-3{font-size:59.61px;fill:#faab00;font-family:Helvetica-Bold, Helvetica;font-weight:700;letter-spacing:0.04em;}.cls-4{letter-spacing:-0.1em;}.cls-5{fill:#5ed500;}</style></defs><title>logo</title><path class="cls-1" d="M605.49,110.11S608,101,628,107s89,13,59,37S582,159.22,605.49,110.11Z"/><path class="cls-1" d="M563,59a24.18,24.18,0,0,1-10,7c-6,2-46-25-23-31S598,42,563,59Z"/><path class="cls-1" d="M844,85.65A223.06,223.06,0,0,0,561.2,63.23C546.65,73.42,508.58,84.92,497,98c-17.61,19.89-14,39-16.3,68.24-1.3,16.52,1.81,32.82,17.28,38.75s27-5.53,39-17c13.28-12.71,17-12,30-23,12.19-10.31,15.31-43.3,28.63-52.63A162.15,162.15,0,0,1,691.79,83C778.9,84.48,850,155.12,852,242.22,854,333.82,780.13,409,689,409a163.15,163.15,0,0,1-98.44-33.14c-15.61-11.82-47.84-45.41-69.87-59.78C531,340.34,555.37,380.23,609,399c0,0-71.76-21.44-99.22-88.62a16.25,16.25,0,0,0-4.29-.92c-2.11,12-3.62,39.42,16.87,69.17C528.53,386.74,533,392,533,392a125.38,125.38,0,0,1-10.64-13.37c-4.45-5.84-9.8-13.18-15-21.09a163.5,163.5,0,0,0,28.2,44.71c10.37,11.75,22.66,24.66,31,30.17A223,223,0,0,0,844,85.65ZM542,164a7,7,0,1,1,7-7A7,7,0,0,1,542,164Zm330,87c-6.1,135.39-128,156-128,156s115-24,118-155C865.38,104.28,720,77,720,77,786,83,877,140,872,251Z"/><path class="cls-2" d="M79.24,291.1q1,8.22,4.23,11.67,5.76,6.17,21.29,6.16,9.12,0,14.49-2.7t5.38-8.1a8.73,8.73,0,0,0-4.33-7.89q-4.33-2.7-32.22-9.3Q68,276,59.79,268.52t-8.22-21.19q0-16.31,12.84-28t36.12-11.73q22.08,0,36,8.81t16,30.42h-30.8a18.14,18.14,0,0,0-3.36-9.4q-5.09-6.27-17.34-6.27-10.08,0-14.36,3.14t-4.28,7.35a8,8,0,0,0,4.56,7.67q4.54,2.49,32.15,8.54,18.4,4.32,27.6,13.07t9.07,22.16q0,17.51-13.05,28.58t-40.33,11.08q-27.84,0-41.1-11.73T48,291.1Z"/><path class="cls-2" d="M205.69,196.86H174.46V168.44h31.23Zm-31.23,14h31.23v117.8H174.46Z"/><path class="cls-2" d="M223.41,233.93V212h16.43V179.14h30.48V212h19.13v21.94H270.32v62.25q0,7.24,1.83,9T283.39,307c.94,0,1.93,0,3-.05s2.07-.09,3.08-.17v23l-14.59.54Q253,331.1,245,322.77q-5.19-5.29-5.19-16.32V233.93Z"/><path class="cls-1" d="M386,213.3a47.87,47.87,0,0,1,20.36,17.43,57.86,57.86,0,0,1,9.39,24.35q1.25,8.11,1,23.38H331q.71,17.73,12.31,24.85,7.07,4.44,17,4.44,10.51,0,17.1-5.41a25.9,25.9,0,0,0,6.34-8.1h31.44q-1.25,10.49-11.42,21.29-15.82,17.18-44.31,17.18a64.25,64.25,0,0,1-41.5-14.49q-18-14.5-18-47.17,0-30.6,16.23-46.94t42.12-16.33A67,67,0,0,1,386,213.3Zm-46.07,26.61q-6.54,6.72-8.21,18.23h53.07q-.86-12.27-8.21-18.61t-18.27-6.35Q346.44,233.18,339.91,239.91Z"/><path class="cls-1" d="M513.51,213.3a47.9,47.9,0,0,1,20.35,17.43,57.73,57.73,0,0,1,9.39,24.35q1.25,8.11,1,23.38H458.47q.72,17.73,12.32,24.85,7.05,4.44,17,4.44,10.53,0,17.1-5.41a25.76,25.76,0,0,0,6.34-8.1h31.45q-1.24,10.49-11.42,21.29-15.82,17.18-44.32,17.18a64.2,64.2,0,0,1-41.49-14.49q-18-14.5-18-47.17,0-30.6,16.23-46.94t42.12-16.33A67.11,67.11,0,0,1,513.51,213.3Zm-46.08,26.61q-6.53,6.72-8.21,18.23h53.07q-.84-12.27-8.21-18.61t-18.26-6.35Q474,233.18,467.43,239.91Z"/><path class="cls-1" d="M591.29,328.71h-30.8V169.41h30.8Z"/><path class="cls-2" d="M759.46,211.34a34.19,34.19,0,0,1,13.72,10.6,33.71,33.71,0,0,1,6.7,15.13,104.6,104.6,0,0,1,1.08,17.4l-.21,74.24H749.19v-75a24.6,24.6,0,0,0-2.16-11q-4.11-8.22-15.13-8.22-12.75,0-17.62,10.59a33.4,33.4,0,0,0-2.48,13.51v70.14h-31V258.57c0-7-.72-12.06-2.16-15.24q-3.89-8.54-15.24-8.53-13.18,0-17.72,8.53c-1.66,3.25-2.49,8.07-2.49,14.49v70.89H611.94V211.13h29.93v17.18q5.73-9.18,10.81-13.07,9-6.92,23.24-6.92,13.5,0,21.83,5.94a34.75,34.75,0,0,1,10.16,14.16q6-10.38,15-15.24a45.86,45.86,0,0,1,21.18-4.86A41.18,41.18,0,0,1,759.46,211.34Z"/><text class="cls-3" transform="translate(53.46 391.88)">basi<tspan class="cls-4" x="128.83" y="0">c</tspan><tspan x="156.02" y="0"> </tspan><tspan class="cls-5" x="174.97" y="0">template</tspan></text></svg>